<svg width="58" height="42" viewBox="0 0 58 42" fill="none" xmlns="http://www.w3.org/2000/svg">
  <!-- Scissors — left side -->
  <g transform="translate(8,26) scale(0.28)">
    <!-- Left scissor loop -->
    <circle cx="-6" cy="6" r="5" stroke="#F97316" strokeWidth="3" fill="white" />
    <line x1="-4" y1="2" x2="6" y2="-10" stroke="#F97316" strokeWidth="3" strokeLinecap="round" />
    <!-- Right scissor loop -->
    <circle cx="6" cy="6" r="5" stroke="#F97316" strokeWidth="3" fill="white" />
    <line x1="4" y1="2" x2="-6" y2="-10" stroke="#F97316" strokeWidth="3" strokeLinecap="round" />
  </g>
  
  <!-- Cat head -->
  <g transform="translate(18, 0)">
    <!-- Left ear -->
    <path d="M8 16L4 3L14 12" fill="#111827" />
    <!-- Right ear -->
    <path d="M32 16L36 3L26 12" fill="#111827" />
    <!-- Left ear accent -->
    <path d="M9 15L6 6L13 12" fill="#F97316" opacity="0.2" />
    <!-- Right ear accent -->
    <path d="M31 15L34 6L27 12" fill="#F97316" opacity="0.2" />
    <!-- Head -->
    <ellipse cx="20" cy="24" rx="14" ry="13" fill="#111827" />
    <!-- Left eye -->
    <ellipse cx="15" cy="22" rx="2.2" ry="2.6" fill="#F97316" />
    <!-- Right eye -->
    <ellipse cx="25" cy="22" rx="2.2" ry="2.6" fill="#F97316" />
    <!-- Left eye shine -->
    <ellipse cx="15.7" cy="21" rx="0.8" ry="1" fill="white" opacity="0.85" />
    <!-- Right eye shine -->
    <ellipse cx="25.7" cy="21" rx="0.8" ry="1" fill="white" opacity="0.85" />
    <!-- Nose -->
    <path d="M18.8 27L20 28.8L21.2 27Z" fill="#F97316" />
  </g>
</svg>
